<mxfile host="app.diagrams.net" modified="2024-04-11T10:07:16.181Z" agent="Mozilla/5.0 (Windows NT 10.0; Win64; x64) AppleWebKit/537.36 (KHTML, like Gecko) Chrome/123.0.0.0 Safari/537.36" etag="iVNrZ6TQXzTTXx3YJQuQ" version="24.2.2" type="onedrive">
  <diagram name="Page-1" id="HT0R2x_jss0_1pmYnfr2">
    <mxGraphModel dx="1500" dy="746" grid="1" gridSize="10" guides="1" tooltips="1" connect="1" arrows="0" fold="1" page="1" pageScale="1" pageWidth="827" pageHeight="1169" math="0" shadow="0">
      <root>
        <mxCell id="0" />
        <mxCell id="1" parent="0" />
        <mxCell id="rfgADSQF3bgrVH1Q9b8L-9" value="PORTFELJSKE TRANSAKCIJE" style="swimlane;whiteSpace=wrap;html=1;" vertex="1" parent="1">
          <mxGeometry x="90" y="100" width="200" height="240" as="geometry" />
        </mxCell>
        <mxCell id="rfgADSQF3bgrVH1Q9b8L-10" value="ID(portfelja)" style="text;html=1;align=center;verticalAlign=middle;resizable=0;points=[];autosize=1;strokeColor=none;fillColor=none;" vertex="1" parent="rfgADSQF3bgrVH1Q9b8L-9">
          <mxGeometry x="35" y="40" width="90" height="30" as="geometry" />
        </mxCell>
        <mxCell id="rfgADSQF3bgrVH1Q9b8L-11" value="vrednostni papir" style="text;html=1;align=center;verticalAlign=middle;resizable=0;points=[];autosize=1;strokeColor=none;fillColor=none;" vertex="1" parent="rfgADSQF3bgrVH1Q9b8L-9">
          <mxGeometry x="20" y="80" width="110" height="30" as="geometry" />
        </mxCell>
        <mxCell id="rfgADSQF3bgrVH1Q9b8L-13" value="Količino" style="text;html=1;align=center;verticalAlign=middle;resizable=0;points=[];autosize=1;strokeColor=none;fillColor=none;" vertex="1" parent="rfgADSQF3bgrVH1Q9b8L-9">
          <mxGeometry x="45" y="130" width="70" height="30" as="geometry" />
        </mxCell>
        <mxCell id="rfgADSQF3bgrVH1Q9b8L-43" value="Trenutna tržna cena" style="text;html=1;align=center;verticalAlign=middle;resizable=0;points=[];autosize=1;strokeColor=none;fillColor=none;" vertex="1" parent="rfgADSQF3bgrVH1Q9b8L-9">
          <mxGeometry x="10" y="178" width="130" height="30" as="geometry" />
        </mxCell>
        <mxCell id="rfgADSQF3bgrVH1Q9b8L-52" style="edgeStyle=orthogonalEdgeStyle;rounded=0;orthogonalLoop=1;jettySize=auto;html=1;exitX=1;exitY=0.5;exitDx=0;exitDy=0;entryX=0;entryY=0.5;entryDx=0;entryDy=0;" edge="1" parent="1" source="rfgADSQF3bgrVH1Q9b8L-14" target="rfgADSQF3bgrVH1Q9b8L-54">
          <mxGeometry relative="1" as="geometry">
            <mxPoint x="580" y="530" as="targetPoint" />
          </mxGeometry>
        </mxCell>
        <mxCell id="rfgADSQF3bgrVH1Q9b8L-14" value="BANČNI RAČUN" style="swimlane;whiteSpace=wrap;html=1;" vertex="1" parent="1">
          <mxGeometry x="280" y="405" width="200" height="180" as="geometry" />
        </mxCell>
        <mxCell id="rfgADSQF3bgrVH1Q9b8L-15" value="ID(številka računa)" style="text;html=1;align=center;verticalAlign=middle;resizable=0;points=[];autosize=1;strokeColor=none;fillColor=none;" vertex="1" parent="rfgADSQF3bgrVH1Q9b8L-14">
          <mxGeometry x="11" y="30" width="120" height="30" as="geometry" />
        </mxCell>
        <mxCell id="rfgADSQF3bgrVH1Q9b8L-17" value="Geslo" style="text;html=1;align=center;verticalAlign=middle;resizable=0;points=[];autosize=1;strokeColor=none;fillColor=none;" vertex="1" parent="rfgADSQF3bgrVH1Q9b8L-14">
          <mxGeometry x="34" y="80" width="50" height="30" as="geometry" />
        </mxCell>
        <mxCell id="rfgADSQF3bgrVH1Q9b8L-16" value="Sredstva" style="text;html=1;align=center;verticalAlign=middle;resizable=0;points=[];autosize=1;strokeColor=none;fillColor=none;" vertex="1" parent="rfgADSQF3bgrVH1Q9b8L-14">
          <mxGeometry x="24" y="130" width="70" height="30" as="geometry" />
        </mxCell>
        <mxCell id="rfgADSQF3bgrVH1Q9b8L-53" style="edgeStyle=orthogonalEdgeStyle;rounded=0;orthogonalLoop=1;jettySize=auto;html=1;" edge="1" parent="1" source="rfgADSQF3bgrVH1Q9b8L-66" target="rfgADSQF3bgrVH1Q9b8L-54">
          <mxGeometry relative="1" as="geometry">
            <mxPoint x="660" y="500" as="targetPoint" />
            <mxPoint x="720" y="430" as="sourcePoint" />
          </mxGeometry>
        </mxCell>
        <mxCell id="rfgADSQF3bgrVH1Q9b8L-20" value="Portfelj" style="swimlane;whiteSpace=wrap;html=1;" vertex="1" parent="1">
          <mxGeometry x="565" y="65" width="200" height="330" as="geometry" />
        </mxCell>
        <mxCell id="rfgADSQF3bgrVH1Q9b8L-21" value="ID(Številka portfelja" style="text;html=1;align=center;verticalAlign=middle;resizable=0;points=[];autosize=1;strokeColor=none;fillColor=none;" vertex="1" parent="rfgADSQF3bgrVH1Q9b8L-20">
          <mxGeometry x="10" y="30" width="130" height="30" as="geometry" />
        </mxCell>
        <mxCell id="rfgADSQF3bgrVH1Q9b8L-22" value="Vrsta VRednostnega papirja" style="text;html=1;align=center;verticalAlign=middle;resizable=0;points=[];autosize=1;strokeColor=none;fillColor=none;" vertex="1" parent="rfgADSQF3bgrVH1Q9b8L-20">
          <mxGeometry y="68" width="170" height="30" as="geometry" />
        </mxCell>
        <mxCell id="rfgADSQF3bgrVH1Q9b8L-23" value="količina" style="text;html=1;align=center;verticalAlign=middle;resizable=0;points=[];autosize=1;strokeColor=none;fillColor=none;" vertex="1" parent="rfgADSQF3bgrVH1Q9b8L-20">
          <mxGeometry x="30" y="110" width="60" height="30" as="geometry" />
        </mxCell>
        <mxCell id="rfgADSQF3bgrVH1Q9b8L-25" value="Vrednost portfelja" style="text;html=1;align=center;verticalAlign=middle;resizable=0;points=[];autosize=1;strokeColor=none;fillColor=none;" vertex="1" parent="rfgADSQF3bgrVH1Q9b8L-20">
          <mxGeometry x="10" y="160" width="120" height="30" as="geometry" />
        </mxCell>
        <mxCell id="rfgADSQF3bgrVH1Q9b8L-19" value="Naročnina" style="text;html=1;align=center;verticalAlign=middle;resizable=0;points=[];autosize=1;strokeColor=none;fillColor=none;" vertex="1" parent="rfgADSQF3bgrVH1Q9b8L-20">
          <mxGeometry x="10" y="240" width="80" height="30" as="geometry" />
        </mxCell>
        <mxCell id="rfgADSQF3bgrVH1Q9b8L-18" value="Številke računov, ki jim sledi" style="text;html=1;align=center;verticalAlign=middle;resizable=0;points=[];autosize=1;strokeColor=none;fillColor=none;" vertex="1" parent="rfgADSQF3bgrVH1Q9b8L-20">
          <mxGeometry y="280" width="170" height="30" as="geometry" />
        </mxCell>
        <mxCell id="rfgADSQF3bgrVH1Q9b8L-56" style="edgeStyle=orthogonalEdgeStyle;rounded=0;orthogonalLoop=1;jettySize=auto;html=1;exitX=0.5;exitY=0;exitDx=0;exitDy=0;entryX=0.5;entryY=1;entryDx=0;entryDy=0;" edge="1" parent="1" source="rfgADSQF3bgrVH1Q9b8L-62" target="rfgADSQF3bgrVH1Q9b8L-46">
          <mxGeometry relative="1" as="geometry">
            <Array as="points">
              <mxPoint x="140" y="590" />
              <mxPoint x="140" y="360" />
              <mxPoint x="390" y="360" />
            </Array>
          </mxGeometry>
        </mxCell>
        <mxCell id="rfgADSQF3bgrVH1Q9b8L-58" style="edgeStyle=orthogonalEdgeStyle;rounded=0;orthogonalLoop=1;jettySize=auto;html=1;exitX=1;exitY=0.5;exitDx=0;exitDy=0;entryX=0;entryY=0.5;entryDx=0;entryDy=0;" edge="1" parent="1" source="rfgADSQF3bgrVH1Q9b8L-60" target="rfgADSQF3bgrVH1Q9b8L-57">
          <mxGeometry relative="1" as="geometry" />
        </mxCell>
        <mxCell id="rfgADSQF3bgrVH1Q9b8L-27" value="STANJE TRGA" style="swimlane;whiteSpace=wrap;html=1;startSize=20;" vertex="1" parent="1">
          <mxGeometry x="40" y="620" width="200" height="200" as="geometry" />
        </mxCell>
        <mxCell id="rfgADSQF3bgrVH1Q9b8L-28" value="Vrednostni papir" style="text;html=1;align=center;verticalAlign=middle;resizable=0;points=[];autosize=1;strokeColor=none;fillColor=none;" vertex="1" parent="rfgADSQF3bgrVH1Q9b8L-27">
          <mxGeometry x="5" y="38" width="110" height="30" as="geometry" />
        </mxCell>
        <mxCell id="rfgADSQF3bgrVH1Q9b8L-29" value="Cena" style="text;html=1;align=center;verticalAlign=middle;resizable=0;points=[];autosize=1;strokeColor=none;fillColor=none;" vertex="1" parent="rfgADSQF3bgrVH1Q9b8L-27">
          <mxGeometry x="20" y="90" width="50" height="30" as="geometry" />
        </mxCell>
        <mxCell id="rfgADSQF3bgrVH1Q9b8L-34" value="Geslo" style="text;html=1;align=center;verticalAlign=middle;resizable=0;points=[];autosize=1;strokeColor=none;fillColor=none;" vertex="1" parent="1">
          <mxGeometry x="575" y="298" width="50" height="30" as="geometry" />
        </mxCell>
        <mxCell id="rfgADSQF3bgrVH1Q9b8L-55" style="edgeStyle=orthogonalEdgeStyle;rounded=0;orthogonalLoop=1;jettySize=auto;html=1;exitX=0.25;exitY=0;exitDx=0;exitDy=0;entryX=0.5;entryY=1;entryDx=0;entryDy=0;" edge="1" parent="1" source="rfgADSQF3bgrVH1Q9b8L-37" target="rfgADSQF3bgrVH1Q9b8L-54">
          <mxGeometry relative="1" as="geometry" />
        </mxCell>
        <mxCell id="rfgADSQF3bgrVH1Q9b8L-37" value="TRANSAKCIJE" style="swimlane;whiteSpace=wrap;html=1;" vertex="1" parent="1">
          <mxGeometry x="610" y="668" width="200" height="200" as="geometry" />
        </mxCell>
        <mxCell id="rfgADSQF3bgrVH1Q9b8L-38" value="ID(BANČNEGA)" style="text;html=1;align=center;verticalAlign=middle;resizable=0;points=[];autosize=1;strokeColor=none;fillColor=none;" vertex="1" parent="rfgADSQF3bgrVH1Q9b8L-37">
          <mxGeometry y="38" width="110" height="30" as="geometry" />
        </mxCell>
        <mxCell id="rfgADSQF3bgrVH1Q9b8L-47" value="Količina denarja" style="text;html=1;align=center;verticalAlign=middle;resizable=0;points=[];autosize=1;strokeColor=none;fillColor=none;" vertex="1" parent="rfgADSQF3bgrVH1Q9b8L-37">
          <mxGeometry x="10" y="78" width="110" height="30" as="geometry" />
        </mxCell>
        <mxCell id="rfgADSQF3bgrVH1Q9b8L-39" value="Vrednostni papir" style="text;html=1;align=center;verticalAlign=middle;resizable=0;points=[];autosize=1;strokeColor=none;fillColor=none;" vertex="1" parent="1">
          <mxGeometry x="565" y="838" width="110" height="30" as="geometry" />
        </mxCell>
        <mxCell id="rfgADSQF3bgrVH1Q9b8L-40" value="Količina" style="text;html=1;align=center;verticalAlign=middle;resizable=0;points=[];autosize=1;strokeColor=none;fillColor=none;" vertex="1" parent="1">
          <mxGeometry x="595" y="878" width="70" height="30" as="geometry" />
        </mxCell>
        <mxCell id="rfgADSQF3bgrVH1Q9b8L-42" value="trenutna cena" style="text;html=1;align=center;verticalAlign=middle;resizable=0;points=[];autosize=1;strokeColor=none;fillColor=none;" vertex="1" parent="1">
          <mxGeometry x="560" y="908" width="100" height="30" as="geometry" />
        </mxCell>
        <mxCell id="rfgADSQF3bgrVH1Q9b8L-45" value="" style="endArrow=classic;startArrow=classic;html=1;rounded=0;entryX=1;entryY=0.5;entryDx=0;entryDy=0;" edge="1" parent="1" source="rfgADSQF3bgrVH1Q9b8L-64" target="rfgADSQF3bgrVH1Q9b8L-9">
          <mxGeometry width="50" height="50" relative="1" as="geometry">
            <mxPoint x="550" y="250" as="sourcePoint" />
            <mxPoint x="370" y="310" as="targetPoint" />
            <Array as="points" />
          </mxGeometry>
        </mxCell>
        <mxCell id="rfgADSQF3bgrVH1Q9b8L-46" value="Nakup/prodaja" style="rhombus;whiteSpace=wrap;html=1;" vertex="1" parent="1">
          <mxGeometry x="350" y="180" width="80" height="80" as="geometry" />
        </mxCell>
        <mxCell id="rfgADSQF3bgrVH1Q9b8L-49" value="" style="endArrow=classic;startArrow=classic;html=1;rounded=0;exitX=1;exitY=1;exitDx=0;exitDy=0;entryX=0;entryY=0;entryDx=0;entryDy=0;" edge="1" parent="1" source="rfgADSQF3bgrVH1Q9b8L-14" target="rfgADSQF3bgrVH1Q9b8L-37">
          <mxGeometry width="50" height="50" relative="1" as="geometry">
            <mxPoint x="190" y="470" as="sourcePoint" />
            <mxPoint x="240" y="420" as="targetPoint" />
          </mxGeometry>
        </mxCell>
        <mxCell id="rfgADSQF3bgrVH1Q9b8L-50" value="Polog/dvig sredstev" style="rhombus;whiteSpace=wrap;html=1;" vertex="1" parent="1">
          <mxGeometry x="495" y="600" width="80" height="80" as="geometry" />
        </mxCell>
        <mxCell id="rfgADSQF3bgrVH1Q9b8L-54" value="Bančno portfeljska transakcija" style="rhombus;whiteSpace=wrap;html=1;" vertex="1" parent="1">
          <mxGeometry x="600" y="490" width="80" height="80" as="geometry" />
        </mxCell>
        <mxCell id="rfgADSQF3bgrVH1Q9b8L-59" style="edgeStyle=orthogonalEdgeStyle;rounded=0;orthogonalLoop=1;jettySize=auto;html=1;exitX=1;exitY=0.5;exitDx=0;exitDy=0;entryX=0.25;entryY=1;entryDx=0;entryDy=0;" edge="1" parent="1" source="rfgADSQF3bgrVH1Q9b8L-57" target="rfgADSQF3bgrVH1Q9b8L-20">
          <mxGeometry relative="1" as="geometry">
            <Array as="points">
              <mxPoint x="560" y="720" />
              <mxPoint x="560" y="430" />
            </Array>
          </mxGeometry>
        </mxCell>
        <mxCell id="rfgADSQF3bgrVH1Q9b8L-57" value="Pridobi vrednost" style="rhombus;whiteSpace=wrap;html=1;" vertex="1" parent="1">
          <mxGeometry x="360" y="680" width="80" height="80" as="geometry" />
        </mxCell>
        <mxCell id="rfgADSQF3bgrVH1Q9b8L-61" value="" style="edgeStyle=orthogonalEdgeStyle;rounded=0;orthogonalLoop=1;jettySize=auto;html=1;exitX=1;exitY=0.5;exitDx=0;exitDy=0;entryX=0;entryY=0.5;entryDx=0;entryDy=0;" edge="1" parent="1" source="rfgADSQF3bgrVH1Q9b8L-27" target="rfgADSQF3bgrVH1Q9b8L-60">
          <mxGeometry relative="1" as="geometry">
            <mxPoint x="240" y="720" as="sourcePoint" />
            <mxPoint x="360" y="720" as="targetPoint" />
          </mxGeometry>
        </mxCell>
        <mxCell id="rfgADSQF3bgrVH1Q9b8L-60" value="" style="strokeWidth=2;html=1;shape=mxgraph.flowchart.annotation_2;align=left;labelPosition=right;pointerEvents=1;rotation=-180;" vertex="1" parent="1">
          <mxGeometry x="240" y="675" width="50" height="100" as="geometry" />
        </mxCell>
        <mxCell id="rfgADSQF3bgrVH1Q9b8L-62" value="" style="strokeWidth=2;html=1;shape=mxgraph.flowchart.annotation_2;align=left;labelPosition=right;pointerEvents=1;rotation=90;" vertex="1" parent="1">
          <mxGeometry x="115" y="540" width="50" height="100" as="geometry" />
        </mxCell>
        <mxCell id="rfgADSQF3bgrVH1Q9b8L-65" value="" style="endArrow=classic;startArrow=classic;html=1;rounded=0;entryX=0;entryY=0.5;entryDx=0;entryDy=0;entryPerimeter=0;" edge="1" parent="1" target="rfgADSQF3bgrVH1Q9b8L-64">
          <mxGeometry width="50" height="50" relative="1" as="geometry">
            <mxPoint x="550" y="250" as="sourcePoint" />
            <mxPoint x="290" y="220" as="targetPoint" />
            <Array as="points">
              <mxPoint x="390" y="260" />
            </Array>
          </mxGeometry>
        </mxCell>
        <mxCell id="rfgADSQF3bgrVH1Q9b8L-64" value="" style="strokeWidth=2;html=1;shape=mxgraph.flowchart.annotation_2;align=left;labelPosition=right;pointerEvents=1;rotation=-180;" vertex="1" parent="1">
          <mxGeometry x="291" y="180" width="50" height="100" as="geometry" />
        </mxCell>
        <mxCell id="rfgADSQF3bgrVH1Q9b8L-67" value="" style="edgeStyle=orthogonalEdgeStyle;rounded=0;orthogonalLoop=1;jettySize=auto;html=1;" edge="1" parent="1" target="rfgADSQF3bgrVH1Q9b8L-66">
          <mxGeometry relative="1" as="geometry">
            <mxPoint x="640" y="490" as="targetPoint" />
            <mxPoint x="720" y="430" as="sourcePoint" />
          </mxGeometry>
        </mxCell>
        <mxCell id="rfgADSQF3bgrVH1Q9b8L-66" value="" style="strokeWidth=2;html=1;shape=mxgraph.flowchart.annotation_2;align=left;labelPosition=right;pointerEvents=1;rotation=-90;" vertex="1" parent="1">
          <mxGeometry x="695" y="365" width="50" height="100" as="geometry" />
        </mxCell>
      </root>
    </mxGraphModel>
  </diagram>
</mxfile>
